<svg xmlns="http://www.w3.org/2000/svg" width="762.3" height="123.3" viewBox="398.9 -42.1 762.3 123.3" enable-background="new 398.9 -42.1 762.3 123.3"><title>WHITE</title><g fill="#fff"><path d="M493.1-3.4v46.2c0 15.8-12.8 28.6-28.6 28.6h-29.2l5.6-12.7h23.6c8.8 0 15.9-7.1 15.9-15.9v-33.5h-32.4c-8.8 0-15.9 7.1-15.9 15.9v56.1h-12.7v-56.1c0-15.8 12.8-28.6 28.6-28.6h19.7v-26h-24.3c-17.5 0-31.8 14.2-31.8 31.8v78.9h-12.7v-78.9c0-24.6 19.9-44.5 44.5-44.5h37.1v38.7h12.6zM694.3-6.9c.6-6.2 2.6-8 8.3-8 5.2 0 7.1 1.4 7.4 8h-15.7m20.2 15c-3.4.9-7 1.4-10.5 1.6-6.5 0-9.6-1.6-9.7-9.6h24.2c.7-18.1-4.5-22.2-16.3-22.2-10.9 0-17.4 4.6-17.4 19.6 0 15.3 7.3 19.9 18.1 19.9 4.4-.1 8.8-.8 13.1-2.1l-1.5-7.2zM518.4-8.6v-18h14.5c4 0 6.1 3 6.1 9.2 0 5.8-2.3 8.7-6.3 8.7-.1.1-14.3.1-14.3.1zm0 24.9v-16.9h17.2c9.8 0 14-7.9 14-16.7 0-10-3.5-17.5-14.3-17.5h-26.7v51.1h9.8zM563.3-36.7h-9.1v42.9c0 5.4 1.4 9 4 11.9l8-3.4c-2-2.5-3-5.6-2.9-8.8v-42.6zM593.7 9.1c-2.4.8-4.9 1.2-7.5 1.2-5.5 0-6.9-.8-6.9-5.9 0-4.8 1.8-5.4 7-5.4 2.5 0 5 .2 7.4.7v9.4zm8.8-16.7c0-11.2-5.1-14.5-16.2-14.5-5 .1-10 .7-14.9 2l1.7 7.5c3.6-1.2 7.5-1.8 11.3-1.8 7.8 0 9.3 1.6 9.3 8.1-3-.7-6.1-1-9.2-1-8.7 0-14.7 1.7-14.7 12.3 0 9.8 4 12.5 15.8 12.5 5.8 0 11.5-1 16.9-2.9v-22.2zM617.2-13c2.2-.6 4.4-.9 6.7-.9 6.5 0 8 2 8 10.3v19.9h9.1v-20.8c0-13.4-4.7-17.6-15.2-17.6-6 .1-12 1.2-17.7 3.2v35.2h9.1v-29.3zM655.8-13c2.2-.6 4.4-.9 6.7-.9 6.5 0 8 2 8 10.3v19.9h9.1v-20.8c0-13.4-4.7-17.6-15.2-17.6-6 .1-12 1.2-17.7 3.2v35.2h9.1v-29.3zM747.9 8.5c-2.3.7-4.8 1.1-7.2 1.1-6.5 0-8.6-1.9-8.6-12.1 0-9.3 2-11.9 8.4-11.9 4.1 0 7.4 1.4 7.4 3.6v19.3zm9.1-45.2h-9.1v16.7c-2.7-1.5-5.8-2.2-9-2.1-10 0-16.2 4.6-16.2 19.7 0 15.3 5.7 19.7 18 19.7 5.4 0 12.3-1.1 16.3-2.7v-51.3zM785.4-8.2v-18h14.5c4 0 6.1 3 6.1 9.2 0 5.8-2.3 8.7-6.3 8.7l-14.3.1zm0 25v-16.9h17.2c9.8 0 14-7.9 14-16.7 0-10-3.5-17.5-14.3-17.5h-26.7v51.1h9.8zM843.6 9.6c-2.4.8-4.9 1.2-7.5 1.3-5.5 0-6.9-.8-6.9-5.9 0-4.8 1.8-5.4 7-5.4 2.5 0 5 .2 7.4.7v9.3zm8.8-16.8c0-11.2-5.1-14.5-16.2-14.5-5 .1-10 .7-14.9 2l1.7 7.5c3.6-1.2 7.5-1.8 11.3-1.8 7.8 0 9.3 1.6 9.3 8.1-3-.7-6.1-1-9.3-1-8.7 0-14.7 1.7-14.7 12.3 0 9.8 4 12.5 15.8 12.5 5.8 0 11.5-1 16.9-2.9l.1-22.2zM858 16.8h9.1v-25.9c0-2.7 4-4.2 8.6-4.2 1.6 0 3.2.2 4.8.5v-8.7c-1.3-.1-2.5-.2-3.8-.2-5.4 0-8.2 1.8-9.6 3.9v-2.8h-9.1v37.4zM891.6-6.5c.6-6.2 2.6-8 8.3-8 5.2 0 7.1 1.4 7.4 8h-15.7m20.1 15c-3.4.9-7 1.4-10.5 1.6-6.5 0-9.6-1.6-9.7-9.6h24.2c.7-18.1-4.5-22.2-16.3-22.2-10.9 0-17.4 4.6-17.4 19.6 0 15.3 7.3 19.9 18.1 19.9 4.4-.1 8.8-.8 13.1-2l-1.5-7.3zM929.5-12.6c2.2-.6 4.4-.9 6.7-.9 6.5 0 8 2.1 8 10.3v19.9h9.1v-20.8c0-13.4-4.7-17.6-15.2-17.6-6 .1-12 1.2-17.7 3.2v35.2h9.1v-29.3zM984.1-12.7v-7.9h-12.4v-10.1l-9.1 3.7v6.3h-6.3v7.9h6.3v17c0 11.1 4.1 13.6 12.5 13.6 3.5 0 7-.6 10.3-1.7l-1.6-7.2c-2.1.7-4.2 1-6.4 1-4.4 0-5.7-1.9-5.7-6.5v-16.1h12.4zM1021.5-4.7c0-13.9-4.8-16.9-13.5-16.9-3.6.1-7.1 1-10.3 2.6v-17.1h-9.1v53h9.1v-26.9c0-2.2 3.5-3.3 7.2-3.3 5.9 0 7.5 3.3 7.5 9.5v20.8h9.1v-21.7M1035.2-1.9c0-10.7 2-12.4 8.4-12.4 6.5 0 8.5 1.7 8.5 12.4 0 10.3-2 12.4-8.5 12.4s-8.4-2.1-8.4-12.4m-9.4-.2c0 15.3 5.9 19.9 17.8 19.9 12 0 17.9-4.5 17.9-19.9 0-15.3-5.9-19.6-17.9-19.6-11.9 0-17.8 4.3-17.8 19.6M1074.9-1.9c0-10.7 2-12.4 8.4-12.4 6.5 0 8.5 1.7 8.5 12.4 0 10.3-2 12.4-8.5 12.4-6.4 0-8.4-2.1-8.4-12.4m-9.3-.2c0 15.3 5.9 19.9 17.8 19.9 12.1 0 17.9-4.5 17.9-19.9 0-15.3-6-19.6-17.9-19.6-11.9 0-17.8 4.3-17.8 19.6"/><path d="M1130.5 8.9c-2.3.7-4.8 1.1-7.2 1.1-6.5 0-8.6-1.9-8.6-12.1 0-9.3 2.1-11.9 8.4-11.9 4.1 0 7.3 1.4 7.3 3.6l.1 19.3zm9.1-45.1h-9.1v16.7c-2.7-1.5-5.8-2.2-9-2.1-10 0-16.2 4.6-16.2 19.7 0 15.3 5.7 19.7 18 19.7 5.4 0 12.3-1.1 16.3-2.7v-51.3zM1153.1-30h1.2c.7 0 1.3-.1 1.3-.9s-.8-.9-1.4-.9h-1.1v1.8zm-1.6-3.2h3c2 0 2.9.8 2.9 2.4.1 1.1-.8 2.1-1.9 2.1l1.9 3.1h-1.8l-1.7-3h-.6v3h-1.7l-.1-7.6zm2.7 8.9c2.9 0 4.9-2 4.9-5.1s-2-5.1-4.9-5.1c-2.9 0-4.9 2-4.9 5.1s2 5.1 4.9 5.1zm0-12c3.8 0 6.9 3.1 6.9 6.9 0 3.8-3.1 6.9-6.9 6.9-3.8 0-6.9-3.1-6.9-6.9 0-3.8 3.1-6.9 6.9-6.9zM520.4 35.9c1.4 0 2.8.2 4.1.8 1 .5 2 1.2 2.7 2.1.7.9 1.2 1.9 1.5 3 .3 1.1.4 2.3.4 3.5 0 1.4-.2 2.9-.7 4.2-.4 1.1-1.1 2.1-2 3-.9.8-2 1.4-3.2 1.7-1.3.4-2.7.6-4.1.6h-3.4v12.6h-6.3v-31.5h11zm-1.9 14.3c1.1 0 2.2-.4 3.1-1.1.9-1 1.3-2.3 1.2-3.6.1-1.3-.3-2.6-1-3.6-.9-.9-2.1-1.4-3.4-1.2h-2.6v9.6l2.7-.1zM537.8 35.9v31.4h-6.1v-31.4h6.1zM541.5 50.4c0-1.2.2-2.4.7-3.5.4-.9 1-1.7 1.8-2.2.8-.6 1.7-1 2.6-1.2 1.1-.3 2.1-.4 3.2-.4 1.5 0 3 .1 4.4.5 1 .3 1.9.8 2.6 1.5.6.6 1.1 1.4 1.3 2.3.2 1 .3 1.9.3 2.9v12.5c0 .9 0 1.7.2 2.6.1.7.3 1.3.6 2h-5.8c-.2-.4-.4-.8-.5-1.2-.1-.4-.2-.8-.3-1.3h-.1c-.5 1.1-1.4 1.9-2.4 2.4-1.2.4-2.4.6-3.6.6-.9 0-1.8-.2-2.7-.6-.7-.3-1.3-.9-1.8-1.5-.4-.7-.8-1.4-1-2.2-.2-.8-.3-1.6-.3-2.4 0-1 .1-1.9.4-2.9.2-.8.6-1.5 1.1-2.1.5-.6 1.1-1.1 1.9-1.4.9-.4 1.8-.8 2.7-1l3.4-.9c.7-.1 1.4-.5 1.9-1 .4-.5.6-1.2.5-1.8 0-.8-.2-1.5-.6-2.1-.6-.6-1.4-.9-2.2-.8-.8-.1-1.6.2-2.1.8-.5.6-.7 1.4-.7 2.2v.8h-5.5v-.6zm9.8 5.9c-.4.2-.8.3-1.3.4-1 .1-1.9.6-2.6 1.3-.6.7-.8 1.6-.8 2.5 0 .8.2 1.6.5 2.3.3.6 1 1 1.8 1 .4 0 .9-.1 1.3-.2s.9-.3 1.2-.6c.4-.3.7-.7.9-1.1.2-.5.4-1.1.4-1.7v-4.7c-.5.4-1 .6-1.4.8zM567.9 43.7v2.8h.1c.6-1.1 1.4-2 2.5-2.6 1.1-.6 2.3-.8 3.5-.8 1.6-.1 3.3.5 4.5 1.6 1 1.1 1.6 2.8 1.6 5.2v17.6h-6.1v-16.5c.1-.9-.1-1.8-.6-2.6-.5-.5-1.2-.8-2-.7-2.1 0-3.2 1.3-3.2 3.9v15.7h-6.1v-23.6h5.8zM589.6 43.7v2.8h.1c.6-1.1 1.4-2 2.5-2.6 1.1-.6 2.3-.8 3.5-.8 1.6-.1 3.3.5 4.5 1.6 1 1.1 1.6 2.8 1.6 5.2v17.6h-6.1v-16.5c.1-.9-.1-1.8-.6-2.6-.5-.5-1.2-.8-2-.7-2.1 0-3.2 1.3-3.2 3.9v15.7h-6.1v-23.6h5.8zM610.7 58.4c0 .7.1 1.4.2 2 .1.6.3 1.2.5 1.8.2.5.5.9.9 1.2.4.3.9.5 1.4.5.9.1 1.8-.4 2.2-1.1.6-1 .9-2.2 1-3.3h5.5c.1 2.3-.7 4.5-2.2 6.3-1.4 1.4-3.5 2.2-6.4 2.2-1.8.1-3.6-.3-5.2-1.1-1.2-.7-2.1-1.7-2.7-2.9-.6-1.3-1-2.6-1.1-4.1-.1-1.5-.2-3-.2-4.5s.1-3.1.3-4.6c.2-1.4.6-2.7 1.3-3.9.7-1.2 1.7-2.1 2.8-2.7 1.5-.7 3.2-1.1 4.9-1 1.5-.1 3 .2 4.3.9 1.1.5 2 1.4 2.7 2.4.7 1.2 1.1 2.4 1.3 3.8.2 1.6.4 3.3.4 5v1.4h-12c.1-.2.1 1.7.1 1.7zm6-8c-.1-.6-.2-1.2-.5-1.8-.2-.5-.5-.8-.9-1.1-.5-.3-1-.4-1.5-.4s-1.1.1-1.5.4c-.4.3-.7.7-.9 1.1-.2.5-.4 1-.5 1.5-.1.6-.2 1.1-.2 1.7v.9h6.2c0-.8-.1-1.6-.2-2.3zM637.6 64.9c-.5 1-1.3 1.8-2.3 2.3-1 .5-2 .7-3.1.7-2.2.1-4.3-1-5.5-2.9-1.2-1.9-1.8-5.1-1.8-9.5s.6-7.6 1.8-9.5c1.1-1.9 3.3-3.1 5.5-2.9 1 0 2 .2 2.9.7.9.5 1.6 1.3 2.2 2.1h.1v-10h6.1v31.4h-5.8l-.1-2.4zm-6-3.5c.3 1.2 1.4 2 2.6 2 1.2.1 2.4-.7 2.6-2 .5-1.9.7-3.9.6-5.8.1-2-.1-3.9-.6-5.8-.3-1.2-1.4-2-2.6-2-1.2-.1-2.3.8-2.6 2-.5 1.9-.7 3.9-.6 5.8 0 1.9.2 3.9.6 5.8zM669.4 35.9c1.4 0 2.8.2 4.1.8 1 .5 2 1.2 2.7 2.1.7.9 1.2 1.9 1.5 3 .3 1.1.4 2.3.4 3.5 0 1.4-.2 2.9-.7 4.2-.4 1.1-1.1 2.1-2 3-.9.8-2 1.4-3.2 1.7-1.3.4-2.7.6-4.1.6h-3.4v12.6h-6.3v-31.5h11zm-1.9 14.3c1.1 0 2.2-.4 3.1-1.1.9-1 1.3-2.3 1.2-3.6.1-1.3-.3-2.6-1-3.6-.9-.9-2.1-1.4-3.4-1.2h-2.6v9.6l2.7-.1zM680.4 50.4c0-1.2.2-2.4.7-3.5.4-.9 1-1.7 1.8-2.2.8-.6 1.7-1 2.6-1.2 1.1-.3 2.1-.4 3.2-.4 1.5 0 3 .1 4.4.5 1 .3 1.9.8 2.6 1.5.6.6 1.1 1.4 1.3 2.3.2 1 .3 1.9.3 2.9v12.5c0 .9 0 1.7.2 2.6.1.7.3 1.3.6 2h-5.8c-.2-.4-.4-.8-.5-1.2-.1-.4-.2-.8-.3-1.3h-.1c-.5 1.1-1.4 1.9-2.4 2.4-1.2.4-2.4.6-3.6.6-.9 0-1.8-.2-2.7-.6-.7-.3-1.3-.9-1.8-1.5-.4-.7-.8-1.4-1-2.2-.2-.8-.3-1.6-.3-2.4 0-1 .1-1.9.4-2.9.2-.8.6-1.5 1.1-2.1.5-.6 1.1-1.1 1.9-1.4.9-.4 1.8-.8 2.7-1l3.4-.9c.7-.1 1.4-.5 1.9-1 .4-.5.6-1.2.5-1.8 0-.8-.2-1.5-.6-2.1-.6-.6-1.4-.9-2.2-.8-.8-.1-1.6.2-2.1.8-.5.6-.7 1.4-.7 2.2v.8h-5.5v-.6zm9.8 5.9c-.4.2-.8.3-1.3.4-1 .1-1.9.6-2.6 1.3-.6.7-.8 1.6-.8 2.5 0 .8.2 1.6.5 2.3.3.6 1 1 1.8 1 .4 0 .9-.1 1.3-.2s.9-.3 1.2-.6c.4-.3.7-.7.9-1.1.2-.5.4-1.1.4-1.7v-4.7c-.5.4-.9.6-1.4.8zM706.9 43.7v3.2h.1c.5-1.1 1.3-2 2.2-2.8.9-.7 2.1-1.1 3.2-1h.6c.2 0 .4 0 .6.1v5.8l-.9-.1h-.9c-.5 0-1.1.1-1.6.2s-1 .4-1.5.7c-.5.4-.8.8-1.1 1.3-.3.6-.4 1.3-.4 2v14.2h-6.1v-23.6h5.8zM721 58.4c0 .7.1 1.4.2 2 .1.6.3 1.2.5 1.8.2.5.5.9.9 1.2.4.3.9.5 1.4.5.9.1 1.8-.4 2.2-1.1.6-1 .9-2.2 1-3.3h5.5c.1 2.3-.7 4.5-2.2 6.3-1.4 1.4-3.5 2.2-6.4 2.2-1.8.1-3.6-.3-5.2-1.1-1.2-.7-2.1-1.7-2.7-2.9-.6-1.3-1-2.6-1.1-4.1-.1-1.5-.2-3-.2-4.5s.1-3.1.3-4.6c.2-1.4.6-2.7 1.3-3.9.7-1.2 1.7-2.1 2.8-2.7 1.5-.7 3.2-1.1 4.9-1 1.5-.1 3 .2 4.3.9 1.1.5 2 1.4 2.7 2.4.7 1.2 1.1 2.4 1.3 3.8.2 1.6.4 3.3.4 5v1.4h-12c.1-.2.1 1.7.1 1.7zm6-8c-.1-.6-.2-1.2-.5-1.8-.2-.5-.5-.8-.9-1.1-.5-.3-1-.4-1.5-.4s-1.1.1-1.5.4c-.4.3-.7.7-.9 1.1-.2.5-.4 1-.5 1.5-.1.6-.2 1.1-.2 1.7v.9h6.2c0-.8-.1-1.6-.2-2.3zM741.7 43.7v2.8h.1c.6-1.1 1.4-2 2.5-2.6 1.1-.6 2.3-.8 3.5-.8 1.6-.1 3.3.5 4.5 1.6 1 1.1 1.6 2.8 1.6 5.2v17.6h-6.1v-16.5c.1-.9-.1-1.8-.6-2.6-.5-.5-1.2-.8-2-.7-2.1 0-3.2 1.3-3.2 3.9v15.7h-6.1v-23.6h5.8zM765 36.9v6.8h3.5v4.1h-3.5v12.8c-.1.7.1 1.4.4 2 .5.5 1.1.7 1.7.6h.7c.2 0 .5 0 .7-.1v4.2c-.7 0-1.3 0-2 .1-.6 0-1.3.1-2 .1-1 0-1.9-.1-2.9-.2-.7-.1-1.3-.5-1.7-1-.4-.6-.7-1.2-.8-1.9-.2-1-.2-2-.2-3v-13.6h-3.1v-4.1h3.1v-6.8h6.1zM776.6 35.9v10.2h.1c1.2-2 3.4-3.2 5.8-3 1.6-.1 3.3.5 4.5 1.6 1 1.1 1.6 2.8 1.6 5.2v17.6h-6.1v-16.5c.1-.9-.1-1.8-.6-2.6-.5-.5-1.2-.8-2-.7-2.1 0-3.2 1.3-3.2 3.9v15.7h-6.1v-31.4h6zM791.9 50.2c.3-1.4.8-2.7 1.6-3.9.7-1 1.7-1.9 2.9-2.4 1.4-.6 2.9-.9 4.4-.8 1.5-.1 3.1.2 4.5.7 1.2.5 2.2 1.3 2.9 2.4.8 1.2 1.3 2.5 1.5 3.9.3 1.8.5 3.6.4 5.5 0 1.8-.1 3.6-.5 5.4-.3 1.4-.8 2.7-1.6 3.9-.7 1-1.7 1.8-2.9 2.3-1.4.5-2.9.8-4.4.7-1.5.1-3.1-.2-4.5-.7-1.2-.5-2.2-1.3-2.9-2.3-.8-1.2-1.3-2.5-1.5-3.9-.3-1.8-.5-3.6-.4-5.4 0-1.9.1-3.7.5-5.4zm5.7 8.7c0 .9.2 1.8.4 2.6.2.7.5 1.2 1 1.7.5.4 1.1.6 1.8.6 1.2 0 2.3-.8 2.6-1.9.6-2.1.8-4.2.7-6.4.1-2.2-.1-4.3-.7-6.4-.3-1.2-1.4-2-2.6-1.9-.6 0-1.3.2-1.8.6-.5.5-.8 1.1-1 1.7-.2.9-.4 1.7-.4 2.6-.1 1-.1 2.1-.1 3.3 0 1.3 0 2.5.1 3.5zM812.7 50.2c.3-1.4.8-2.7 1.6-3.9.7-1 1.7-1.9 2.9-2.4 1.4-.6 2.9-.9 4.4-.8 1.5-.1 3.1.2 4.5.7 1.2.5 2.2 1.3 2.9 2.4.8 1.2 1.3 2.5 1.5 3.9.3 1.8.5 3.6.4 5.5 0 1.8-.1 3.6-.5 5.4-.3 1.4-.8 2.7-1.6 3.9-.7 1-1.7 1.8-2.9 2.3-1.4.5-2.9.8-4.4.7-1.5.1-3.1-.2-4.5-.7-1.2-.5-2.2-1.3-2.9-2.3-.8-1.2-1.3-2.5-1.5-3.9-.3-1.8-.5-3.6-.4-5.4 0-1.9.2-3.7.5-5.4zm5.7 8.7c0 .9.2 1.8.4 2.6.2.7.5 1.2 1 1.7.5.4 1.1.6 1.8.6 1.2 0 2.3-.8 2.6-1.9.6-2.1.8-4.2.7-6.4.1-2.2-.1-4.3-.7-6.4-.3-1.2-1.4-2-2.6-1.9-.6 0-1.3.2-1.8.6-.5.5-.8 1.1-1 1.7-.2.9-.4 1.7-.4 2.6-.1 1-.1 2.1-.1 3.3 0 1.3 0 2.5.1 3.5zM845.9 64.9c-.5 1-1.3 1.8-2.3 2.3-1 .5-2 .7-3.1.7-2.2.1-4.3-1-5.5-2.9-1.2-1.9-1.8-5.1-1.8-9.5s.6-7.6 1.8-9.5c1.1-1.9 3.3-3.1 5.5-2.9 1 0 2 .2 2.9.7.9.5 1.6 1.3 2.2 2.1h.1v-10h6.1v31.4h-5.8l-.1-2.4zm-6-3.5c.3 1.2 1.4 2 2.6 2 1.2.1 2.4-.7 2.6-2 .5-1.9.7-3.9.6-5.8.1-2-.1-3.9-.6-5.8-.3-1.2-1.4-2-2.6-2-1.2-.1-2.3.8-2.6 2-.5 1.9-.7 3.9-.6 5.8-.1 1.9.1 3.9.6 5.8zM880.6 35.9l8.3 31.4h-6.6l-1.5-6.7h-8.4l-1.5 6.7h-6.6l8.3-31.4h8zm-.9 19.6l-3-14.1h-.1l-3 14.1h6.1zM901.8 50.5c-.1-.5-.2-1-.4-1.5-.2-.4-.5-.8-.8-1.1-.4-.3-.9-.4-1.4-.4-1.3-.1-2.5.7-2.9 2-.3.8-.4 1.7-.5 2.5-.1 1-.1 2.2-.1 3.6 0 1.5 0 2.7.1 3.8.1.9.2 1.7.5 2.6.2.6.5 1.1 1 1.5.5.3 1.1.5 1.7.5.9 0 1.8-.5 2.2-1.3.6-1.3.8-2.8.7-4.2h5.8c0 3.1-.7 5.5-2.1 7.1-1.4 1.6-3.7 2.4-6.9 2.4-1.4 0-2.7-.2-4-.6-1.1-.4-2.1-1.1-2.8-2-.8-1.1-1.4-2.4-1.7-3.8-.4-2-.6-4-.6-6s.2-4.1.7-6.1c.4-1.4 1-2.7 2-3.8.8-.9 1.9-1.6 3-2 1.3-.4 2.6-.6 3.9-.6 2.8 0 4.9.8 6.4 2.5 1.5 1.9 2.3 4.3 2.1 6.7h-5.8l-.1-1.8zM918.2 36.9v6.8h3.5v4.1h-3.5v12.8c-.1.7.1 1.4.4 2 .5.5 1.1.7 1.7.6h.7c.2 0 .5 0 .7-.1v4.2c-.7 0-1.3 0-2 .1-.6 0-1.3.1-2 .1-1 0-1.9-.1-2.9-.2-.7-.1-1.3-.5-1.7-1-.4-.6-.7-1.2-.8-1.9-.2-1-.2-2-.2-3v-13.6h-3.1v-4.1h3.1v-6.8h6.1zM930 35.6v5.2h-6.1v-5.2h6.1zm0 8.1v23.7h-6.1v-23.7h6.1zM933.6 50.2c.3-1.4.8-2.7 1.6-3.9.7-1 1.7-1.9 2.9-2.4 1.4-.6 2.9-.9 4.4-.8 1.5-.1 3.1.2 4.5.7 1.2.5 2.2 1.3 2.9 2.4.8 1.2 1.3 2.5 1.5 3.9.3 1.8.5 3.6.4 5.5 0 1.8-.1 3.6-.5 5.4-.3 1.4-.8 2.7-1.6 3.9-.7 1-1.7 1.8-2.9 2.3-1.4.5-2.9.8-4.4.7-1.5.1-3.1-.2-4.5-.7-1.2-.5-2.2-1.3-2.9-2.3-.8-1.2-1.3-2.5-1.5-3.9-.3-1.8-.5-3.6-.4-5.4 0-1.9.1-3.7.5-5.4zm5.7 8.7c0 .9.2 1.8.4 2.6.2.7.5 1.2 1 1.7.5.4 1.1.6 1.8.6 1.2 0 2.3-.8 2.6-1.9.6-2.1.8-4.2.7-6.4.1-2.2-.1-4.3-.7-6.4-.3-1.2-1.4-2-2.6-1.9-.6 0-1.3.2-1.8.6-.5.5-.8 1.1-1 1.7-.2.9-.4 1.7-.4 2.6-.1 1-.1 2.1-.1 3.3 0 1.3 0 2.5.1 3.5zM960.5 43.7v2.8h.1c.6-1.1 1.4-2 2.5-2.6 1.1-.6 2.3-.8 3.5-.8 1.6-.1 3.3.5 4.5 1.6 1 1.1 1.6 2.8 1.6 5.2v17.6h-6.1v-16.5c.1-.9-.1-1.8-.6-2.6-.5-.5-1.2-.8-2-.7-2.1 0-3.2 1.3-3.2 3.9v15.7h-6.1v-23.6h5.8zM1005 35.9v5.2h-11.2v7.4h10.6v5.2h-10.6v13.7h-6.3v-31.5h17.5zM1019.1 64.6c-.6 1.1-1.4 2-2.5 2.5s-2.3.8-3.5.7c-1.6.1-3.2-.4-4.5-1.5-1-1-1.6-2.7-1.6-5.1v-17.5h6.1v16.3c-.1.9.1 1.8.6 2.6.5.5 1.2.8 2 .7 2.1 0 3.2-1.3 3.2-3.9v-15.7h6.1v23.7h-5.8l-.1-2.8zM1034.5 43.7v2.8h.1c.6-1.1 1.4-2 2.5-2.6 1.1-.6 2.3-.8 3.5-.8 1.6-.1 3.3.5 4.5 1.6 1 1.1 1.6 2.8 1.6 5.2v17.6h-6.1v-16.5c.1-.9-.1-1.8-.6-2.6-.5-.5-1.2-.8-2-.7-2.1 0-3.2 1.3-3.2 3.9v15.7h-6.1v-23.6h5.8zM1062.4 64.9c-.5 1-1.3 1.8-2.3 2.3-1 .5-2 .7-3.1.7-2.2.1-4.3-1-5.5-2.9-1.2-1.9-1.8-5.1-1.8-9.5s.6-7.6 1.8-9.5c1.1-1.9 3.3-3.1 5.5-2.9 1 0 2 .2 2.9.7.9.5 1.6 1.3 2.2 2.1h.1v-10h6.1v31.4h-5.8l-.1-2.4zm-6-3.5c.3 1.2 1.4 2 2.6 2 1.2.1 2.4-.7 2.6-2 .5-1.9.7-3.9.6-5.8.1-2-.1-3.9-.6-5.8-.3-1.2-1.4-2-2.6-2-1.2-.1-2.3.8-2.6 2-.5 1.9-.7 3.9-.6 5.8-.1 1.9.1 3.9.6 5.8z"/></g></svg>