<?xml version="1.0" encoding="utf-8"?>
<!-- Generator: Adobe Illustrator 22.1.0, SVG Export Plug-In . SVG Version: 6.00 Build 0)  -->
<svg version="1.1" xmlns="http://www.w3.org/2000/svg" xmlns:xlink="http://www.w3.org/1999/xlink" x="0px" y="0px"
	 viewBox="0 0 218.1 68.6" style="enable-background:new 0 0 218.1 68.6;" xml:space="preserve">
<style type="text/css">
	.st0{display:none;}
	.st1{display:inline;}
	.st2{fill:#FFFFFF;}
</style>
<g id="c3" class="st0">
	<g class="st1">
		<path class="st2" d="M93.5,65.9h2.3v2.4h-2.3V65.9z M142.1,58.6h-1.2v2.3h-1.3V62h1.3v4.8c-0.1,0.8,0.4,1.6,1.2,1.7
			c0.1,0,0.3,0,0.4,0c0.4,0,0.9,0,1.3-0.1v-1.2c-0.3,0.1-0.5,0.1-0.8,0.1c-0.4,0.1-0.8-0.1-1-0.5c0-0.1,0-0.2,0-0.3V62h1.8v-1.1
			h-1.8L142.1,58.6L142.1,58.6z M101.9,34.3c-0.5-0.1-1.1-0.1-1.6-0.1c-2.2,0-3.4,0.8-4,1.6v-1.2h-3.7v15.5h3.8V39.4
			c0-1.1,1.7-1.7,3.6-1.7c0.7,0,1.3,0.1,2,0.2L101.9,34.3L101.9,34.3z M83.3,50.5c-4.9,0-6.5-1.1-6.5-5.2c0-4.4,2.5-5.1,6.1-5.1
			c1.3,0,2.6,0.1,3.8,0.4c0-2.7-0.6-3.4-3.9-3.4c-1.6,0-3.2,0.3-4.7,0.8L77.4,35c2-0.5,4.1-0.8,6.2-0.8c4.6,0,6.7,1.4,6.7,6v9.1
			C88,50.1,85.7,50.5,83.3,50.5z M83.6,47.6c1.1,0,2.1-0.2,3.1-0.5v-3.9c-1-0.2-2-0.3-3.1-0.3c-2.1,0-2.9,0.2-2.9,2.2
			S81.3,47.6,83.6,47.6z M80.1,62.2L80.1,62.2v-1.5h-2v7.6h2.1V65c0-1.5,0.7-2.3,2.1-2.3c0.4,0,0.8,0.1,1.2,0.2v-2.3
			c-0.2-0.1-0.5-0.1-0.8-0.1C81.5,60.5,80.9,61,80.1,62.2z M76.7,66.8c0,0.5,0.1,1,0.2,1.5h-2.1c-0.1-0.3-0.1-0.5-0.1-0.8
			c-0.8,0.8-1.9,1.2-3,1.1c-1.7,0-2.8-0.7-2.8-2.5s1.4-2.2,2.6-2.3l2.2-0.2c0.6-0.1,0.8-0.2,0.8-0.8s-0.4-0.9-1.6-0.9
			c-0.7-0.2-1.4,0.3-1.6,1c0,0,0,0,0,0.1h-2c0.2-2.3,2.1-2.6,3.8-2.6c3,0,3.6,1.2,3.6,2.6L76.7,66.8L76.7,66.8z M74.7,64.6
			c-0.4,0.2-0.8,0.3-1.2,0.3l-1.2,0.1c-0.5-0.1-1,0.3-1.1,0.9c0,0,0,0.1,0,0.1c0,0.6,0.5,1.1,1.2,1.1c0.1,0,0.1,0,0.2,0
			c1.1,0.1,2.1-0.7,2.2-1.8c0,0,0-0.1,0-0.1L74.7,64.6L74.7,64.6z M139.7,67.4c0.1,0,0.3,0,0.4-0.1v1c-0.3,0.1-0.6,0.1-0.9,0.1
			c-0.5,0.1-1-0.3-1.1-0.8c0-0.1,0-0.1,0-0.2c-0.6,0.8-1.6,1.2-2.6,1.2c-2,0-2.5-1.3-2.5-2.2c0-1.4,0.7-2.1,2.6-2.3l1.3-0.2
			c0.7-0.1,1.1-0.2,1.1-0.9c0-1-0.8-1.2-1.8-1.2s-1.9,0.3-1.9,1.5h-1.1c0.1-1.8,1.2-2.6,3.1-2.6c1.3,0,2.8,0.4,2.8,2.1v4
			c0,0.3,0.1,0.5,0.4,0.6C139.6,67.4,139.7,67.4,139.7,67.4L139.7,67.4z M138,64.4c-0.3,0.3-0.7,0.4-1.1,0.4l-1.3,0.2
			c-0.9,0.1-1.4,0.4-1.4,1.2c0,0.7,0.6,1.2,1.3,1.2c0,0,0.1,0,0.1,0c1.2,0.1,2.3-0.8,2.4-2c0,0,0,0,0-0.1V64.4z M125.8,34.2
			c-2.5,0-5,0.5-7.3,1.3v14.6h3.8V37.9c0.9-0.2,1.8-0.4,2.8-0.4c2.7,0,3.3,0.9,3.3,4.3v8.2h3.8v-8.6
			C132.1,35.9,130.1,34.2,125.8,34.2z M129.7,60.6c-1,0-2,0.5-2.5,1.4c-0.4-0.8-1.2-1.4-2.1-1.4c-1,0-1.9,0.5-2.4,1.4l0,0v-1.1h-1.2
			v7.4h1.2V64c-0.1-1.1,0.7-2.1,1.8-2.2c0.1,0,0.1,0,0.2,0c0.8,0,1.5,0.4,1.5,1.8v4.7h1.2v-4.4c-0.1-1,0.7-1.9,1.7-2
			c0.1,0,0.2,0,0.3,0c0.8,0,1.5,0.4,1.5,1.8v4.7h1.2v-5.1c0.1-1.3-0.8-2.5-2.1-2.6C129.8,60.6,129.8,60.6,129.7,60.6L129.7,60.6z
			 M107.8,66.2L107.8,66.2l-5.4-8H101v10.1h1.2v-8l0,0l5.4,8h1.4V58.2h-1.2L107.8,66.2L107.8,66.2z M115.4,49.7
			c-1.8,0.5-3.6,0.8-5.4,0.8c-4.5,0-7.5-1.9-7.5-8.2c0-6.2,2.7-8.1,7.2-8.1c4.9,0,7,1.7,6.8,9.2h-10c0,3.3,1.3,4,4,4
			c1.5,0,2.9-0.3,4.3-0.6L115.4,49.7z M106.5,40.5h6.5c-0.1-2.7-0.9-3.3-3.1-3.3C107.6,37.2,106.8,37.9,106.5,40.5L106.5,40.5z
			 M117.2,64.6c0,2.1-1.2,4-3.6,4s-3.6-1.8-3.6-4s1.2-4,3.6-4S117.2,62.5,117.2,64.6z M116,64.6c0-1.3-0.6-2.8-2.3-2.8
			s-2.3,1.4-2.3,2.8c0,1.3,0.6,2.8,2.3,2.8S116,65.9,116,64.6L116,64.6z M92.1,65v0.2H86l0,0c0.1,1.1,0.9,1.9,2,1.8
			c0.7,0.1,1.4-0.3,1.7-1H92c-0.6,1.8-2.1,2.6-4,2.6c-2.5,0-4.2-1.2-4.2-4.1s1.7-4.1,4.2-4.1C90.8,60.4,92.1,62.1,92.1,65z M90,63.7
			c-0.1-1-1-1.8-2-1.7c-1,0-1.8,0.7-2,1.7l0,0H90L90,63.7z M141.1,50.5c1.4,0,2.9-0.2,4.3-0.7l-0.7-3c-0.9,0.3-1.7,0.4-2.6,0.4
			c-1.8,0-2.3-0.8-2.3-2.7v-6.6h5.1v-3.3h-5.1v-4.2l-3.8,1.5v2.6h-2.6v3.3h2.6v7C135.9,49.5,137.6,50.5,141.1,50.5L141.1,50.5z
			 M131.4,14.1c0-6.2,2.7-8.1,7.2-8.1c4.9,0,7,1.7,6.8,9.2h-10c0,3.3,1.3,4,4,4c1.5,0,2.9-0.3,4.4-0.6l0.6,3
			c-1.8,0.5-3.6,0.8-5.4,0.9C134.4,22.4,131.4,20.5,131.4,14.1L131.4,14.1z M135.4,12.3h6.5C141.8,9.6,141,9,138.8,9
			C136.5,9,135.6,9.8,135.4,12.3L135.4,12.3z M119.4,9.8c0.9-0.2,1.8-0.4,2.8-0.4c2.7,0,3.3,0.9,3.3,4.3V22h3.8v-8.7
			c0-5.6-1.9-7.3-6.3-7.3c-2.5,0-5,0.5-7.3,1.3V22h3.8L119.4,9.8L119.4,9.8z M62.5,22h-4V0.8h11c4.5,0,5.9,3.1,5.9,7.3
			c0,3.7-1.7,6.9-5.8,6.9h-7.1V22L62.5,22z M62.5,11.7h5.9c1.7,0,2.6-1.2,2.6-3.6c0-2.6-0.9-3.8-2.5-3.8h-6
			C62.6,4.2,62.6,11.7,62.5,11.7z M103.5,9.8c0.9-0.2,1.8-0.4,2.8-0.4c2.7,0,3.3,0.9,3.3,4.3V22h3.8v-8.7c0-5.6-1.9-7.3-6.3-7.3
			c-2.5,0-5,0.5-7.3,1.3V22h3.8L103.5,9.8L103.5,9.8z M62.5,50.1h-4V28.9h11c4.5,0,5.9,3.1,5.9,7.3c0,3.7-1.7,6.9-5.8,6.9h-7.1V50.1
			L62.5,50.1z M62.5,39.8h5.9c1.7,0,2.6-1.2,2.6-3.6c0-2.6-0.9-3.8-2.5-3.8h-6C62.6,32.3,62.6,39.8,62.5,39.8z M44.6,0.8H24.4
			C10.9,0.8,0,11.7,0,25.1c0,0,0,0,0,0v43.2h7V25.1c0-9.6,7.8-17.4,17.4-17.4h13.3V22H26.9c-8.6,0-15.7,7-15.7,15.6v30.7h7V37.6
			c0-4.8,3.9-8.7,8.7-8.7h17.7v18.4c0,4.8-3.9,8.7-8.7,8.7H23l-3,7h16c8.6,0,15.6-7.1,15.6-15.7V22h-7L44.6,0.8L44.6,0.8z
			 M63.4,66.7c-2.2,0-2.6-2-2.6-3.4s0.5-3.4,2.6-3.4c1.3,0,2.3,0.9,2.4,2.2h2.5c-0.3-3.5-2.9-4.1-5-4.1c-3.1,0-5,1.6-5,5.3
			s1.9,5.3,5,5.3c2.7,0,4.7-1.2,5-4.2h-2.5C65.7,65.7,64.6,66.7,63.4,66.7z M82.4,21.3c-0.8-1-1.2-2.3-1.2-3.6V0h-3.8v17.8
			c-0.1,1.8,0.5,3.6,1.6,4.9L82.4,21.3z M90,12.1c1.3,0,2.6,0.2,3.8,0.4c0-2.7-0.6-3.4-3.9-3.4c-1.6,0-3.2,0.3-4.7,0.8l-0.7-3.1
			c2-0.5,4.1-0.8,6.1-0.8c4.6,0,6.7,1.4,6.7,6v9.1c-2.2,0.8-4.6,1.2-7,1.2c-4.9,0-6.5-1.1-6.5-5.2C83.8,12.8,86.3,12.1,90,12.1
			L90,12.1z M90.7,14.8c-2.1,0-2.9,0.2-2.9,2.2s0.6,2.4,2.9,2.4c1.1,0,2.1-0.2,3.1-0.5v-3.9C92.8,14.9,91.7,14.8,90.7,14.8
			L90.7,14.8z M146.5,58.6h-1.2v2.3H144V62h1.3v4.8c-0.1,0.8,0.4,1.6,1.2,1.7c0.1,0,0.3,0,0.4,0c0.4,0,0.9,0,1.3-0.1v-1.2
			c-0.3,0.1-0.5,0.1-0.8,0.1c-0.4,0.1-0.8-0.1-1-0.5c0-0.1,0-0.2,0-0.3V62h1.8v-1.1h-1.8L146.5,58.6L146.5,58.6z M191.2,58.6H190
			v2.3h-1.3V62h1.3v4.8c-0.1,0.8,0.4,1.6,1.2,1.7c0.1,0,0.3,0,0.4,0c0.4,0,0.9,0,1.3-0.1v-1.2c-0.3,0.1-0.5,0.1-0.8,0.1
			c-0.4,0.1-0.8-0.1-1-0.5c0-0.1,0-0.2,0-0.3V62h1.8v-1.1h-1.8L191.2,58.6L191.2,58.6z M188.6,67.4c0.1,0,0.3,0,0.4-0.1v1
			c-0.3,0.1-0.6,0.1-0.9,0.1c-0.5,0.1-1-0.3-1.1-0.8c0-0.1,0-0.1,0-0.2c-0.6,0.8-1.6,1.2-2.6,1.2c-2,0-2.5-1.3-2.5-2.2
			c0-1.4,0.7-2.1,2.6-2.3l1.3-0.2c0.7-0.1,1.1-0.2,1.1-0.9c0-1-0.8-1.2-1.8-1.2s-1.9,0.3-1.9,1.5h-1.1c0.1-1.8,1.2-2.6,3.1-2.6
			c1.3,0,2.8,0.4,2.8,2.1v4c0,0.3,0.1,0.5,0.4,0.6C188.5,67.4,188.6,67.4,188.6,67.4L188.6,67.4z M187,64.4
			c-0.3,0.3-0.7,0.4-1.1,0.4l-1.3,0.2c-0.9,0.1-1.4,0.4-1.4,1.2c0,0.7,0.6,1.2,1.3,1.2c0,0,0.1,0,0.1,0c1.2,0.1,2.3-0.8,2.4-2
			c0,0,0,0,0-0.1V64.4z M178.3,60.6c-1-0.1-2,0.5-2.4,1.4l0,0v-3.9h-1.2v10.2h1.2V64c-0.1-1.1,0.7-2.1,1.8-2.2c0.1,0,0.1,0,0.2,0
			c0.9-0.1,1.7,0.4,1.8,1.3c0,0.1,0,0.3,0,0.4v4.8h1.2v-5c0.2-1.3-0.8-2.5-2-2.6C178.7,60.6,178.5,60.6,178.3,60.6L178.3,60.6z
			 M171,66.6L171,66.6l-1.6-5.7h-1.3l-1.5,5.7l0,0l-1.7-5.7h-1.3l2.4,7.4h1.2l1.5-5.7l0,0l1.5,5.7h1.3l2.4-7.4h-1.2L171,66.6z
			 M194.1,68.3h1.5v-1.6h-1.5V68.3z M215.7,31.3l0.8,1.3h-0.8l-0.7-1.2h-0.3v1.2h-0.7v-3.2h1.2c0.5-0.1,1.1,0.2,1.2,0.8
			c0,0.1,0,0.2,0,0.2C216.5,30.9,216.2,31.2,215.7,31.3L215.7,31.3z M215.8,30.4c0-0.3-0.3-0.4-0.6-0.4h-0.4v0.8h0.5
			C215.6,30.8,215.9,30.7,215.8,30.4L215.8,30.4z M218.1,31c0,1.6-1.3,2.9-2.9,2.9s-2.9-1.3-2.9-2.9c0-1.6,1.3-2.9,2.9-2.9
			C216.8,28.1,218.1,29.4,218.1,31z M217.3,31c0-1.1-0.9-2-2-2s-2,0.9-2,2c0,1.1,0.9,2,2,2S217.3,32.1,217.3,31z M162.1,42.3
			c0-6.3,2.5-8.1,7.4-8.1s7.4,1.8,7.4,8.1s-2.4,8.2-7.4,8.2S162.1,48.6,162.1,42.3L162.1,42.3z M166,42.3c0,4.3,0.8,5.1,3.5,5.1
			s3.5-0.8,3.5-5.1s-0.8-5.1-3.5-5.1S166,37.9,166,42.3z M205.5,28.1h3.8v21.3c-2.2,0.7-4.5,1.1-6.8,1.1c-5.1,0-7.4-1.8-7.4-8.2
			s2.6-8.2,6.7-8.2c1.3,0,2.6,0.3,3.7,0.9L205.5,28.1L205.5,28.1z M205.5,38.8c0-0.9-1.3-1.5-3-1.5c-2.6,0-3.5,1.1-3.5,4.9
			c0,4.2,0.9,5,3.6,5c1,0,2-0.2,3-0.5L205.5,38.8L205.5,38.8z M193.4,42.3c0,6.3-2.4,8.2-7.4,8.2s-7.4-1.9-7.4-8.2s2.5-8.1,7.4-8.1
			S193.3,36,193.4,42.3L193.4,42.3z M189.5,42.3c0-4.4-0.8-5.1-3.5-5.1s-3.5,0.7-3.5,5.1s0.8,5.1,3.5,5.1S189.4,46.6,189.5,42.3
			L189.5,42.3z M157.7,62.3L157.7,62.3v-1.4h-1.2v7.4h1.2v-3.8c0-1.6,0.8-2.4,2-2.4c0.3,0,0.6,0.1,0.8,0.1v-1.5
			c-0.2-0.1-0.4-0.1-0.7-0.1C158.9,60.7,158.1,61.3,157.7,62.3z M160.3,50.1v-8.9c0-5.8-2-7-5.6-7c-1.5,0-2.9,0.4-4.3,1.1v-7.1h-3.8
			v22h3.8V38.9c0-0.9,1.4-1.4,3-1.4c2.4,0,3.1,1.4,3.1,3.9v8.6H160.3L160.3,50.1z M155.6,64.8V65h-5.7c0,1.3,1,2.3,2.3,2.3
			c0.9,0.1,1.7-0.5,2-1.3h1.2c-0.4,1.4-1.7,2.5-3.2,2.5c-2.4,0-3.6-1.8-3.6-4s1.2-4,3.6-4C153.9,60.6,155.6,61.8,155.6,64.8z
			 M154.4,63.9c0-1.2-1-2.1-2.1-2.1c-1.2,0-2.1,0.9-2.2,2.1L154.4,63.9L154.4,63.9z M157.6,0h3.8v21.3c-2.2,0.7-4.5,1.1-6.8,1.1
			c-5.1,0-7.4-1.8-7.4-8.2s2.6-8.2,6.7-8.2c1.3,0,2.6,0.3,3.7,0.9L157.6,0L157.6,0z M157.6,10.7c0-0.9-1.3-1.5-3-1.5
			c-2.6,0-3.5,1.1-3.5,4.9c0,4.2,0.9,5,3.6,5c1,0,2-0.2,3-0.5L157.6,10.7L157.6,10.7z"/>
	</g>
</g>
<g id="c4">
	<g>
		<path class="st2" d="M51.6,21.9v25.3c0,8.6-7,15.7-15.7,15.7H20l3-7h12.9c4.8,0,8.7-3.9,8.7-8.7V28.9H26.9c-4.8,0-8.7,3.9-8.7,8.7
			v30.7h-7V37.6c0-8.6,7-15.7,15.7-15.7h10.8V7.7H24.3C14.8,7.7,7,15.5,7,25.1v43.2H0V25.1C0,11.7,10.9,0.8,24.3,0.8h20.3V22h7"/>
		<path class="st2" d="M62.6,22v-7h7.1c4.1,0,5.8-3.3,5.8-6.9c0-4.1-1.4-7.3-5.9-7.3h-11V22L62.6,22 M62.6,11.6V4.2h6
			c1.6,0,2.5,1.2,2.5,3.8c0,2.4-0.9,3.6-2.6,3.6H62.6z M81.1,0h-3.8v17.8c0,2.3,0.6,3.7,1.6,4.9l3.3-1.4c-0.9-1.1-1.2-2.2-1.2-3.7
			L81.1,0"/>
		<path class="st2" d="M97.4,12c0-4.6-2.1-6-6.7-6c-2.2,0-4.6,0.4-6.2,0.8l0.7,3.1c1.3-0.5,3-0.8,4.7-0.8c3.2,0,3.9,0.7,3.9,3.4
			c-1.3-0.3-2.5-0.4-3.8-0.4c-3.6,0-6.1,0.7-6.1,5.1c0,4,1.6,5.2,6.5,5.2c2.2,0,5-0.5,7-1.2V12 M93.7,19c-0.9,0.3-2,0.5-3.1,0.5
			c-2.3,0-2.9-0.3-2.9-2.4c0-2,0.8-2.2,2.9-2.2c1.1,0,2.2,0.1,3.1,0.3V19z M103.5,9.8c0.9-0.2,1.8-0.4,2.8-0.4
			c2.7,0,3.3,0.8,3.3,4.3v8.2h3.8v-8.6c0-5.6-1.9-7.3-6.3-7.3c-2.5,0-5.4,0.6-7.3,1.3v14.6h3.8V9.8 M119.4,9.8
			c0.9-0.2,1.8-0.4,2.8-0.4c2.7,0,3.3,0.8,3.3,4.3v8.2h3.8v-8.6c0-5.6-1.9-7.3-6.3-7.3c-2.5,0-5.4,0.6-7.3,1.3v14.6h3.8L119.4,9.8
			 M143.7,18.5c-1.2,0.4-3.3,0.6-4.4,0.6c-2.7,0-4-0.7-4-4h10c0.3-7.5-1.9-9.2-6.8-9.2c-4.5,0-7.2,1.9-7.2,8.1c0,6.4,3,8.2,7.5,8.2
			c1.6,0,3.9-0.3,5.4-0.8L143.7,18.5 M135.4,12.3c0.2-2.6,1.1-3.3,3.4-3.3c2.2,0,2.9,0.6,3.1,3.3H135.4"/>
		<path class="st2" d="M161.3,0h-3.8v6.9c-0.8-0.5-1.9-0.9-3.7-0.9c-4.1,0-6.7,1.9-6.7,8.2c0,6.4,2.3,8.2,7.5,8.2
			c2.2,0,5.1-0.5,6.7-1.1V0 M157.6,18.7c-0.8,0.3-1.9,0.5-3,0.5c-2.7,0-3.6-0.8-3.6-5c0-3.9,0.9-4.9,3.5-4.9c1.7,0,3,0.6,3,1.5v7.9
			H157.6z M62.6,50.1v-7h7.1c4.1,0,5.8-3.3,5.8-6.9c0-4.1-1.4-7.3-5.9-7.3h-11v21.2H62.6 M62.6,39.8v-7.5h6c1.6,0,2.5,1.2,2.5,3.8
			c0,2.4-0.9,3.6-2.6,3.6h-5.9V39.8z M90.3,40.2c0-4.6-2.1-6-6.7-6c-2.2,0-4.6,0.4-6.2,0.8l0.7,3.1c1.3-0.5,3-0.8,4.7-0.8
			c3.2,0,3.9,0.7,3.9,3.4c-1.3-0.3-2.5-0.4-3.8-0.4c-3.6,0-6.1,0.7-6.1,5.1c0,4,1.6,5.2,6.5,5.2c2.2,0,5-0.5,7-1.2V40.2 M86.7,47.1
			c-0.9,0.3-2,0.5-3.1,0.5c-2.3,0-2.9-0.3-2.9-2.4c0-2,0.8-2.2,2.9-2.2c1.1,0,2.2,0.1,3.1,0.3C86.7,43.3,86.7,47.1,86.7,47.1z
			 M92.6,50.1h3.8V39.4c0-1.1,1.7-1.7,3.6-1.7c0.7,0,1.4,0.1,2,0.2v-3.6c-0.5-0.1-1.1-0.1-1.6-0.1c-2.2,0-3.4,0.8-4,1.6v-1.2h-3.8
			V50.1 M114.8,46.7c-1.2,0.4-3.3,0.6-4.3,0.6c-2.7,0-4-0.7-4-4h10c0.3-7.5-1.9-9.2-6.8-9.2c-4.5,0-7.2,1.9-7.2,8.1
			c0,6.4,3,8.2,7.5,8.2c1.6,0,3.9-0.3,5.4-0.9L114.8,46.7 M106.5,40.5c0.2-2.6,1.1-3.3,3.4-3.3c2.2,0,3,0.6,3.1,3.3H106.5
			 M122.2,37.9c0.9-0.2,1.8-0.4,2.8-0.4c2.7,0,3.3,0.9,3.3,4.3V50h3.8v-8.6c0-5.6-1.9-7.3-6.3-7.3c-2.5,0-5.4,0.6-7.3,1.3V50h3.8
			V37.9 M144.8,37.9v-3.3h-5.1v-4.2l-3.8,1.6v2.6h-2.6v3.3h2.6v7c0,4.6,1.7,5.6,5.2,5.6c1.5,0,3.2-0.3,4.3-0.7l-0.7-3
			c-0.8,0.2-1.6,0.4-2.6,0.4c-1.8,0-2.3-0.8-2.3-2.7v-6.7h5 M160.3,41.2c0-5.8-2-7-5.6-7c-1.6,0-3.3,0.5-4.3,1.1v-7.1h-3.8v22h3.8
			V38.9c0-0.9,1.4-1.4,3-1.4c2.4,0,3.1,1.4,3.1,3.9V50h3.8V41.2 M162.1,42.3c0,6.4,2.4,8.2,7.4,8.2s7.4-1.9,7.4-8.2
			s-2.5-8.1-7.4-8.1C164.5,34.2,162.1,36,162.1,42.3 M166,42.3c0-4.4,0.8-5.1,3.5-5.1s3.5,0.7,3.5,5.1c0,4.3-0.8,5.1-3.5,5.1
			C166.8,47.5,166,46.6,166,42.3 M178.5,42.3c0,6.4,2.4,8.2,7.4,8.2s7.4-1.9,7.4-8.2s-2.5-8.1-7.4-8.1S178.5,36,178.5,42.3
			 M182.4,42.3c0-4.4,0.8-5.1,3.5-5.1s3.5,0.7,3.5,5.1c0,4.3-0.8,5.1-3.5,5.1C183.3,47.5,182.4,46.6,182.4,42.3"/>
		<path class="st2" d="M209.2,28.1h-3.8V35c-0.8-0.5-1.9-0.9-3.7-0.9c-4.1,0-6.7,1.9-6.7,8.2c0,6.4,2.3,8.2,7.5,8.2
			c2.2,0,5.1-0.5,6.7-1.1V28.1 M205.4,46.8c-0.8,0.3-1.9,0.5-3,0.5c-2.7,0-3.6-0.8-3.6-5c0-3.9,0.8-4.9,3.5-4.9c1.7,0,3,0.6,3,1.5
			v7.9H205.4z M64.7,66.2h-3.9l-0.7,2.1h-2.5l3.7-10.1h2.8l3.7,10.1h-2.5L64.7,66.2 M62.7,60.4l-1.3,4H64
			C64,64.4,62.7,60.4,62.7,60.4z M74,63.5c-0.3-1-0.9-1.3-1.7-1.3c-1.3,0-2,0.8-2,2.3s0.7,2.3,2,2.3c0.9,0,1.6-0.6,1.7-1.5h2.2
			c-0.4,2.7-2,3.3-4.1,3.3c-2.4,0-4-1.2-4-4.1s1.7-4.1,4.2-4.1c1.6,0,3.5,0.6,3.9,3.1L74,63.5 M77.9,58.4H80v2.3h1.7v1.7H80v3.5
			c0,0.6,0.2,0.8,0.7,0.8c0.4,0,0.7,0,1-0.1v1.7c-0.4,0.1-1.2,0.1-1.6,0.1c-2,0-2.2-0.9-2.2-2.2v-3.8h-1.3v-1.7h1.3V58.4"/>
		<path class="st2" d="M82.8,65.9h2.3v2.4h-2.3V65.9z M90.2,58.2h1l5.9,8.6h0.1v-8.6H98v10.1h-1l-5.9-8.6H91v8.6h-0.8V58.2"/>
		<path class="st2" d="M102.8,60.7c2.4,0,3.5,1.9,3.5,3.9c0,2-1.1,3.9-3.5,3.9s-3.5-1.8-3.5-3.9C99.3,62.6,100.4,60.7,102.8,60.7
			 M102.8,67.7c1.7,0,2.6-1.3,2.6-3c0-1.8-1-3-2.6-3c-1.7,0-2.6,1.3-2.6,3C100.2,66.4,101.1,67.7,102.8,67.7z M120.3,63.6
			c0-1.3-0.6-2-1.8-2c-1.4,0-2.1,0.9-2.1,2.4v4.3h-0.9v-5c0-0.9-0.6-1.7-1.8-1.7c-1.3,0-2.2,0.9-2.2,2.6v4.1h-0.9V61h0.9v1.4
			c0.4-0.8,1-1.6,2.4-1.6s2,0.9,2.2,1.6c0.3-0.7,1.2-1.6,2.4-1.6c1.7,0,2.5,1,2.5,2.6v5h-0.9v-4.8"/>
		<path class="st2" d="M122.5,63.2c0.1-1.5,0.8-2.5,2.9-2.5s2.8,0.8,2.8,2.2v3.8c0,0.6,0.1,0.8,0.5,0.8h0.5v0.7l-0.7,0.1
			c-0.9,0-0.9-0.7-0.9-1.3c-0.3,0.5-0.9,1.5-2.9,1.5c-1.1,0-2.4-0.5-2.4-2.2c0-2,1.7-2.2,3.1-2.3c1.9-0.1,2.2-0.3,2.2-1
			c0-1.1-0.6-1.4-2-1.4s-2.1,0.4-2.1,1.6L122.5,63.2 M127.5,64.3c-0.4,0.3-1,0.4-2.7,0.6c-1,0.1-1.6,0.5-1.6,1.4
			c0,1.1,0.8,1.5,1.8,1.5c1.2,0,2.6-0.8,2.6-2.3v-1.2H127.5z M130.4,58.6h0.9v2.3h1.7v0.8h-1.7v4.9c0,0.6,0.2,0.9,0.9,0.9
			c0.4,0,0.7,0,0.9-0.1v0.9c-0.3,0.1-0.7,0.1-1,0.1c-1.4,0-1.7-0.6-1.7-1.8v-4.8h-1.3V61h1.3L130.4,58.6 M134.6,58.6h0.9v2.3h1.7
			v0.8h-1.7v4.9c0,0.6,0.2,0.9,0.9,0.9c0.4,0,0.7,0,0.9-0.1v0.9c-0.3,0.1-0.7,0.1-1,0.1c-1.4,0-1.7-0.6-1.7-1.8v-4.8h-1.3V61h1.3
			L134.6,58.6"/>
		<path class="st2" d="M144.6,66c-0.4,1.3-1.3,2.6-3.3,2.6c-2.5,0-3.4-2.1-3.4-3.9c0-2,1.1-3.9,3.4-3.9c1.6,0,3.5,0.8,3.5,4.2h-6
			c0,1.5,0.9,2.8,2.5,2.8c1.5,0,2.1-0.6,2.4-1.7L144.6,66 M143.9,64.1c-0.3-1.8-1.4-2.5-2.5-2.5s-2.3,0.7-2.5,2.5H143.9z M145.8,61
			h0.9v1.7c0.3-0.9,0.9-1.9,2.4-1.9c0.2,0,0.4,0,0.5,0.1V62c-0.3-0.1-0.5-0.1-0.8-0.1c-0.9,0-2.1,0.7-2.1,2.8v3.7h-0.9L145.8,61
			 M162.4,61h1l-2.5,7.3h-1l-1.9-5.9l-1.8,5.9h-0.9l-2.5-7.3h1l1.9,6l1.9-6h0.9l1.9,5.9L162.4,61 M164,58.1h0.9v4.3
			c0.3-0.8,1.2-1.7,2.6-1.7c2.1,0,2.7,1.3,2.7,3v4.5h-0.9v-4.7c0-1.5-0.8-2-1.9-2c-1.7,0-2.5,1-2.5,2.7v4H164L164,58.1"/>
		<path class="st2" d="M171.4,63.2c0.1-1.5,0.8-2.5,2.9-2.5c2.1,0,2.8,0.8,2.8,2.2v3.8c0,0.6,0.1,0.8,0.5,0.8h0.5v0.7l-0.7,0.1
			c-0.9,0-0.9-0.7-1-1.3c-0.3,0.5-0.9,1.5-2.9,1.5c-1.1,0-2.4-0.5-2.4-2.2c0-2,1.7-2.2,3.1-2.3c1.9-0.1,2.2-0.3,2.2-1
			c0-1.1-0.6-1.4-2-1.4s-2.1,0.4-2.1,1.6L171.4,63.2 M176.4,64.3c-0.4,0.3-1,0.4-2.7,0.6c-1,0.1-1.6,0.5-1.6,1.4
			c0,1.1,0.8,1.5,1.8,1.5c1.2,0,2.6-0.8,2.6-2.3v-1.2H176.4z M179.3,58.6h0.9v2.3h1.7v0.8h-1.7v4.9c0,0.6,0.2,0.9,0.9,0.9
			c0.4,0,0.7,0,0.9-0.1v0.9c-0.3,0.1-0.7,0.1-1,0.1c-1.4,0-1.7-0.6-1.7-1.8v-4.8H178V61h1.3L179.3,58.6"/>
		<path class="st2" d="M183.4,66.7h1v1.6h-1V66.7z"/>
		<path class="st2" d="M215.4,28.1c1.5,0,2.8,1.1,2.8,2.8c0,1.7-1.3,2.8-2.8,2.8s-2.8-1.1-2.8-2.8C212.5,29.3,213.9,28.1,215.4,28.1
			 M215.4,28.7c-1.2,0-2.2,1-2.2,2.3c0,1.3,1,2.3,2.2,2.3s2.2-1,2.2-2.3S216.6,28.7,215.4,28.7z M215.3,31.2h-0.5v1.4h-0.5v-3.3h1.3
			c0.8,0,1.2,0.3,1.2,0.9s-0.4,0.8-0.9,0.9l0.9,1.4h-0.6C216.2,32.5,215.3,31.2,215.3,31.2z M215.4,30.7c0.4,0,0.8,0,0.8-0.5
			c0-0.4-0.4-0.4-0.7-0.4h-0.6v0.9H215.4z"/>
	</g>
</g>
</svg>
